#N canvas 598 157 523 614 10;
#X obj 224 470 dac~;
#X obj 74 311 osc~;
#X obj 77 355 *~ 0.2;
#X msg 36 17 devices;
#X floatatom 82 189 5 0 0 0 - - -;
#X obj 69 53 comport 4 9600;
#X msg 208 21 devicename arduino;
#X msg 95 19 open 4;
#X obj 59 257 mtof;
#X obj 128 387 *~ 0.3;
#X obj 369 566;
#X connect 1 0 2 0;
#X connect 2 0 9 0;
#X connect 3 0 5 0;
#X connect 4 0 8 0;
#X connect 5 0 4 0;
#X connect 6 0 5 0;
#X connect 7 0 5 0;
#X connect 8 0 1 0;
#X connect 9 0 0 0;
#X connect 9 0 0 1;
